/* XPM */
static char * bottom_left_inactive_xpm[] = {
"7 7 2 1",
" 	c None",
".	c #45575B",
"....   ",
"....   ",
"....   ",
".......",
".......",
".......",
"......."};
