/* XPM */
static char * bottom_right_active_xpm[] = {
"7 7 2 1",
" 	c None",
".	c #45575B",
"   ....",
"   ....",
"   ....",
".......",
".......",
".......",
"......."};
