/* XPM */
static char * maximize_toggled_active_xpm[] = {
"30 33 3 1",
" 	c None",
".	c #D5D4C0",
"+	c #45575B",
"                              ",
"                              ",
"                              ",
"                              ",
"                              ",
"                              ",
"   ..                    ..   ",
"   ..                    ..   ",
"   ...                  ...   ",
"   ...                  ...   ",
"   ....                ....   ",
"   .....              .....   ",
"   ......            ......   ",
"   ........................   ",
"   ........................   ",
"   ........................   ",
"   ........................   ",
"   .....++..........++.....   ",
"   .....++..........++.....   ",
"   ........................   ",
"   ..........++++..........   ",
"   ...........++...........   ",
"   ..++++++........++++++..   ",
"   ........................   ",
"   ......+++......+++......   ",
"   ....++............++....   ",
"   ...+....+......+....+...   ",
"   .......+........+.......   ",
"                              ",
"                              ",
"                              ",
"                              ",
"                              "};
